<?xml version="1.0" encoding="UTF-8"?>
<svg width="22px" height="22px" viewBox="0 0 22 22" version="1.1" xmlns="http://www.w3.org/2000/svg" xmlns:xlink="http://www.w3.org/1999/xlink">
    <title>编组 7@2x</title>
    <g id="规范后1" stroke="none" stroke-width="1" fill="none" fill-rule="evenodd">
        <g id="logo页面下载最新" transform="translate(-441.000000, -2355.000000)">
            <g id="编组-11备份-4" transform="translate(0.000000, 2233.000000)">
                <g id="编组-8备份-3" transform="translate(330.000000, 122.000000)">
                    <g id="编组-7" transform="translate(111.000000, 0.000000)">
                        <rect id="矩形备份-11" x="0" y="0" width="22" height="22"></rect>
                        <g id="编组-3" transform="translate(2.750000, 3.666667)" fill="#9D9BA1">
                            <path d="M3.45229992,0 L3.45229992,10.5145885 L0.192689207,10.5145885 L0.192689207,0 L3.45229992,0 Z M1.82248006,11.950178 C2.95917226,11.950178 3.66666667,12.7575804 3.66666667,13.7666001 C3.64548246,14.7983328 2.95917226,15.5833333 1.84404151,15.5833333 C0.729026846,15.5833333 -5.75761661e-13,14.7983328 -5.75761661e-13,13.7666001 C-5.75761661e-13,12.7575804 0.70734931,11.950178 1.80123781,11.950178 L1.82242202,11.950178 L1.82248006,11.950178 Z" id="path28备份" transform="translate(1.833333, 7.791667) scale(-1, 1) rotate(-180.000000) translate(-1.833333, -7.791667) "></path>
                            <path d="M5.5,4.58333333 L9.10358269,4.58333333 L9.10358269,10.5853572 C9.10358269,10.9065762 9.12700258,11.2274771 9.2221579,11.4571009 C9.48266403,12.0989028 10.0756042,12.7636034 11.0711098,12.7636034 C12.3750842,12.7636034 12.896706,11.7780019 12.896706,10.3331526 L12.896706,4.58333333 L16.5,4.58333333 L16.5,10.7459667 C16.5,14.047207 14.7221739,15.5833333 12.3512793,15.5833333 C10.4072362,15.5833333 9.55378991,14.5061367 9.07961741,13.7724217 L9.10367893,13.7724217 L9.10367893,15.3311287 L5.5,15.3311287 C5.54738517,14.3226284 5.5,4.58333333 5.5,4.58333333 L5.5,4.58333333 Z" id="path30备份" transform="translate(11.000000, 10.083333) scale(-1, 1) rotate(-180.000000) translate(-11.000000, -10.083333) "></path>
                        </g>
                    </g>
                </g>
            </g>
        </g>
    </g>
</svg>