<?xml version="1.0" encoding="UTF-8"?>
<svg width="22px" height="22px" viewBox="0 0 22 22" version="1.1" xmlns="http://www.w3.org/2000/svg" xmlns:xlink="http://www.w3.org/1999/xlink">
    <title>编组 4@2x</title>
    <g id="规范后1" stroke="none" stroke-width="1" fill="none" fill-rule="evenodd">
        <g id="logo页面下载最新" transform="translate(-330.000000, -2355.000000)">
            <g id="编组-11备份-4" transform="translate(0.000000, 2233.000000)">
                <g id="编组-4" transform="translate(330.000000, 122.000000)">
                    <rect id="矩形备份-9" x="0" y="0" width="22" height="22"></rect>
                    <g id="Slack_Mark_Monochrome_Black" transform="translate(1.833333, 1.833333)" fill="#9D9BA1" fill-rule="nonzero">
                        <g id="编组" transform="translate(0.000000, 10.083333)">
                            <path d="M3.66351119,1.83175559 C3.66351119,2.83993115 2.83993115,3.66351119 1.83175559,3.66351119 C0.823580034,3.66351119 0,2.83993115 0,1.83175559 C0,0.823580034 0.823580034,0 1.83175559,0 L3.66351119,0 L3.66351119,1.83175559 Z" id="路径"></path>
                            <path d="M4.58648881,1.83175559 C4.58648881,0.823580034 5.41006885,0 6.41824441,0 C7.42641997,0 8.25,0.823580034 8.25,1.83175559 L8.25,6.41824441 C8.25,7.42641997 7.42641997,8.25 6.41824441,8.25 C5.41006885,8.25 4.58648881,7.42641997 4.58648881,6.41824441 C4.58648881,6.41824441 4.58648881,1.83175559 4.58648881,1.83175559 Z" id="路径"></path>
                        </g>
                        <g id="编组">
                            <path d="M6.41824441,3.66351119 C5.41006885,3.66351119 4.58648881,2.83993115 4.58648881,1.83175559 C4.58648881,0.823580034 5.41006885,0 6.41824441,0 C7.42641997,0 8.25,0.823580034 8.25,1.83175559 L8.25,3.66351119 L6.41824441,3.66351119 Z" id="路径"></path>
                            <path d="M6.41824441,4.58648881 C7.42641997,4.58648881 8.25,5.41006885 8.25,6.41824441 C8.25,7.42641997 7.42641997,8.25 6.41824441,8.25 L1.83175559,8.25 C0.823580034,8.25 0,7.42641997 0,6.41824441 C0,5.41006885 0.823580034,4.58648881 1.83175559,4.58648881 C1.83175559,4.58648881 6.41824441,4.58648881 6.41824441,4.58648881 Z" id="路径"></path>
                        </g>
                        <g id="编组" transform="translate(10.083333, 0.000000)">
                            <path d="M4.58648881,6.41824441 C4.58648881,5.41006885 5.41006885,4.58648881 6.41824441,4.58648881 C7.42641997,4.58648881 8.25,5.41006885 8.25,6.41824441 C8.25,7.42641997 7.42641997,8.25 6.41824441,8.25 L4.58648881,8.25 L4.58648881,6.41824441 Z" id="路径"></path>
                            <path d="M3.66351119,6.41824441 C3.66351119,7.42641997 2.83993115,8.25 1.83175559,8.25 C0.823580034,8.25 0,7.42641997 0,6.41824441 L0,1.83175559 C0,0.823580034 0.823580034,0 1.83175559,0 C2.83993115,0 3.66351119,0.823580034 3.66351119,1.83175559 L3.66351119,6.41824441 Z" id="路径"></path>
                        </g>
                        <g id="编组" transform="translate(10.083333, 10.083333)">
                            <path d="M1.83175559,4.58648881 C2.83993115,4.58648881 3.66351119,5.41006885 3.66351119,6.41824441 C3.66351119,7.42641997 2.83993115,8.25 1.83175559,8.25 C0.823580034,8.25 0,7.42641997 0,6.41824441 L0,4.58648881 L1.83175559,4.58648881 Z" id="路径"></path>
                            <path d="M1.83175559,3.66351119 C0.823580034,3.66351119 0,2.83993115 0,1.83175559 C0,0.823580034 0.823580034,0 1.83175559,0 L6.41824441,0 C7.42641997,0 8.25,0.823580034 8.25,1.83175559 C8.25,2.83993115 7.42641997,3.66351119 6.41824441,3.66351119 L1.83175559,3.66351119 Z" id="路径"></path>
                        </g>
                    </g>
                </g>
            </g>
        </g>
    </g>
</svg>
