<?xml version="1.0" encoding="UTF-8"?>
<svg width="22px" height="22px" viewBox="0 0 22 22" version="1.1" xmlns="http://www.w3.org/2000/svg" xmlns:xlink="http://www.w3.org/1999/xlink">
    <title>编组 6@2x</title>
    <g id="规范后1" stroke="none" stroke-width="1" fill="none" fill-rule="evenodd">
        <g id="logo页面下载最新" transform="translate(-404.000000, -2355.000000)">
            <g id="编组-11备份-4" transform="translate(0.000000, 2233.000000)">
                <g id="编组-8备份-3" transform="translate(330.000000, 122.000000)">
                    <g id="编组-6" transform="translate(74.000000, 0.000000)">
                        <rect id="矩形" x="0" y="0" width="22" height="22"></rect>
                        <g id="Logo-white" transform="translate(0.916667, 3.666667)" fill="#9D9BA1" fill-rule="nonzero">
                            <path d="M18.1020719,4.10763223 C18.1143612,4.28664593 18.1143612,4.46565963 18.1143612,4.64632323 C18.1143612,10.1512007 13.9524003,16.5 6.34207462,16.5 C4.09396032,16.5 1.8925452,15.8515909 0,14.6290181 C0.32689417,14.6686156 0.655426908,14.6884144 0.984778929,14.6892393 C2.84782991,14.6908892 4.65762746,14.0614539 6.12332589,12.9024021 C4.35285395,12.8685792 2.80031146,11.7062276 2.2579457,10.0093097 C2.87814341,10.1297521 3.51718464,10.1050037 4.12591238,9.93753924 C2.19568014,9.54486402 0.80699438,7.83722181 0.80699438,5.85404699 C0.80699438,5.83589814 0.80699438,5.81857423 0.80699438,5.80125033 C1.38213149,6.12380497 2.02608843,6.30281867 2.68479247,6.32261742 C0.866802085,5.09921964 0.306412079,2.66397336 1.40425215,0.75999354 C3.50489539,3.36270425 6.60424538,4.94495438 9.93135622,5.11241881 C9.59790778,3.66546014 10.0534295,2.14920585 11.1283296,1.13204506 C12.7947525,-0.445255383 15.4156409,-0.364410486 16.9821112,1.31270865 C17.908721,1.12874526 18.7968244,0.786391874 19.6095538,0.301322492 C19.3006839,1.26568662 18.6542691,2.08485991 17.7907441,2.60540205 C18.610847,2.5080582 19.4121064,2.28697215 20.1666667,1.94956845 C19.6111924,2.78771555 18.9115241,3.51779446 18.1020719,4.10763223 Z" id="white_background"></path>
                        </g>
                    </g>
                </g>
            </g>
        </g>
    </g>
</svg>